/* XPM */
static char *c5f51520aa42480fbbccd3e157cbf49dJ9VYP5Sjefu2O5E7[] = {
/* columns rows colors chars-per-pixel */
"64 64 224 2 ",
"   c #771C1D",
".  c #7C201F",
"X  c #741E20",
"o  c #791F21",
"O  c #6F1D20",
"+  c #573D2F",
"@  c #7C2121",
"#  c #742622",
"$  c #64332A",
"%  c #7A3B35",
"&  c #6C2C26",
"*  c #3C583D",
"=  c #324E33",
"-  c #1C6E2D",
";  c #146E2C",
":  c #01772B",
">  c #06792E",
",  c #08782E",
"<  c #077A30",
"1  c #0C7C34",
"2  c #167C37",
"3  c #2D6A39",
"4  c #484B37",
"5  c #744539",
"6  c #6C4F39",
"7  c #2D6C45",
"8  c #2E6F48",
"9  c #286946",
"0  c #306F49",
"q  c #336543",
"w  c #2E724A",
"e  c #25734B",
"r  c #307049",
"t  c #34784F",
"y  c #367B52",
"u  c #3E7A53",
"i  c #525A42",
"p  c #52694B",
"a  c #4E754D",
"s  c #707457",
"d  c #665441",
"f  c #821E1E",
"g  c #821F22",
"h  c #822422",
"j  c #8D2525",
"k  c #8B2E28",
"l  c #942927",
"z  c #9A2529",
"x  c #95292A",
"c  c #9B2A2B",
"v  c #952428",
"b  c #9C352D",
"n  c #86332C",
"m  c #A32D2B",
"M  c #AE2D2D",
"N  c #AF2925",
"B  c #B02D2C",
"V  c #AE312D",
"C  c #A0342D",
"Z  c #B2322E",
"A  c #AC2D31",
"S  c #AC3C35",
"D  c #B43231",
"F  c #B93836",
"G  c #AC211F",
"H  c #D52A2D",
"J  c #C53736",
"K  c #CC373A",
"L  c #CB393A",
"P  c #C53738",
"I  c #D63134",
"U  c #D7353C",
"Y  c #D73B3D",
"T  c #D83B3E",
"R  c #DA353B",
"E  c #D22E32",
"W  c #E3343A",
"Q  c #E02B33",
"!  c #99532F",
"~  c #BF4A35",
"^  c #B64334",
"/  c #A84A34",
"(  c #996537",
")  c #A77839",
"_  c #AD6E39",
"`  c #C24B37",
"'  c #CF6E3D",
"]  c #DB3D40",
"[  c #9A5849",
"{  c #AB4F46",
"}  c #BA5245",
"|  c #AD5149",
" . c #836D56",
".. c #956653",
"X. c #8B7259",
"o. c #AC6B54",
"O. c #877D62",
"+. c #9A7A66",
"@. c #AC7062",
"#. c #D84646",
"$. c #DD5643",
"%. c #C84E4B",
"&. c #D57240",
"*. c #DD7E49",
"=. c #CA7854",
"-. c #C1794F",
";. c #E3604F",
":. c #E05744",
">. c #0D8138",
",. c #17843E",
"<. c #1E8643",
"1. c #28884A",
"2. c #35884A",
"3. c #3A8456",
"4. c #358459",
"5. c #3B8759",
"6. c #3C895A",
"7. c #348A58",
"8. c #2C9654",
"9. c #33975A",
"0. c #2A8E56",
"q. c #3E8E62",
"w. c #3A9C61",
"e. c #49884C",
"r. c #51834C",
"t. c #478955",
"y. c #599659",
"u. c #569256",
"i. c #538D5D",
"p. c #6F815A",
"a. c #459B6A",
"s. c #4A9E6A",
"d. c #449565",
"f. c #559765",
"g. c #428C61",
"h. c #7C8964",
"j. c #689B6C",
"k. c #74946E",
"l. c #46A56E",
"z. c #4BA974",
"x. c #57AC76",
"c. c #4EBC7C",
"v. c #4CB476",
"b. c #52B47C",
"n. c #54BD7B",
"m. c #57BA7B",
"M. c #4BB06E",
"N. c #76B972",
"B. c #68AC72",
"V. c #4DC47D",
"C. c #56C17D",
"Z. c #58C17E",
"A. c #65C67D",
"S. c #A98B3F",
"D. c #BB863E",
"F. c #90994C",
"G. c #AC8E41",
"H. c #8FA151",
"J. c #93AC59",
"K. c #91A253",
"L. c #9BA04C",
"P. c #898366",
"I. c #94836A",
"U. c #97A868",
"Y. c #CD9150",
"T. c #E6844C",
"R. c #EA864E",
"E. c #E99A4C",
"W. c #E69847",
"Q. c #E78F5C",
"!. c #CAAD53",
"~. c #D4BC58",
"^. c #C9A54D",
"/. c #F2AA4B",
"(. c #F3AE52",
"). c #F4B254",
"_. c #F1B358",
"`. c #F9B454",
"'. c #ECB454",
"]. c #C69A63",
"[. c #E68C64",
"{. c #CAA768",
"}. c #EAA76A",
"|. c #98C778",
" X c #AAC478",
".X c #D3C25C",
"XX c #F7CC5D",
"oX c #FCCD5E",
"OX c #F1C65B",
"+X c #F8D15F",
"@X c #F7D15E",
"#X c #EBC95E",
"$X c #D2CA6B",
"%X c #FBD360",
"&X c #EADE76",
"*X c #E3CB60",
"=X c #E9E07D",
"-X c #58BD82",
";X c #62BE85",
":X c #5BC483",
">X c #54C682",
",X c #47C780",
"<X c #62C782",
"1X c #74CD83",
"2X c #85BE9A",
"3X c #A2A68F",
"4X c #83D082",
"5X c #86C593",
"6X c #9DE08B",
"7X c #B6E289",
"8X c #91C4A4",
"9X c #D6E787",
"0X c #D6F091",
"qX c #FCEB88",
"wX c #FAF38E",
"eX c #FAF391",
"rX c #FEFD96",
"tX c #F5F191",
"yX c #E6EF8E",
"uX c #E6F2EA",
"iX c #EDF5F0",
"pX c #FFFFFF",
"aX c #F3F9F5",
"sX c #EDEAE6",
/* pixels */
": : : : : : : : : : : : : : : : : : : : : : : : : : : : : : : : : : : : : : : : : : : : : : : : : : : : : : : : : : : : : : : : ",
": : : : : : : : : : : : : : : < 8XiXiX8X< : : : : : : : : : : : : : : : : : : : : : : : : : : : : : : : : : : : : : : : : : : : ",
": : : : : : : : : : : : : : : 8XpXpXpXpX8X: : : : : : : : : : : : : : : : : : : : : : : : : : : : : : : : : : : : : : : : : : : ",
": : : : : : : : : : : : : : : iXpXpXpXpXiX: : : : : : : > 1 9.b.n.b.w.1 > : : : : : : : : : : : : : : : : : : : : : : : : : : : ",
": : : : : : : : : : : : : : : iXpXpXpXpXiX: : : : > 1 8.b.-Xn.Z.Z.Z.C.>Xb.9.>.< : : : : : : : : : : : : : : : : : : : : : : : : ",
": : : : : : : : : : : : : : : 8XpXpXpXpX8X: > >.8.x.-Xn.n.Z.Z.Z.Z.Z.Z.Z.n.c.:Xb.8.>.< : : : : : : : : : : : : : : : : : : : : : ",
": : : s.uXuXs.: : : : : : : : < 8XiXsX3Xa f.k.k.j.M.V.Z.Z.Z.Z.Z.Z.Z.Z.Z.Z.Z.V.M.j.k.k.f.a 3 2 : : : : : : : : : : 2XaX2X: : : : ",
": : : uXpXpXuX: : : : : : : : : < k.@.#.I H H Q L ..h.c.>XZ.Z.Z.Z.Z.Z.Z.>Xc.h...L Q H H I #.@.k.1 : : : : : : : : pXpXaX: : : : ",
": : : uXpXpXuX: : : : : : : : 1.P.H I Y T T Y T T W U ..x.>XZ.n.c.n.Z.>XB...U W T T Y T T T I H P.0.< : : : : : : 2XaX2X: : : : ",
": : : s.uXuXs.: : : : : <.9.m.B.E T T Y T T T T T T T W { j.,X<X4X<X,Xj.{ W T Y T T Y T T T T T E B.-Xl.1.: : : : : : : : : : : ",
": : : : : : : : : ,.9.b.;X:Xv.s T T T T T T T T T T T T R }  X0XyX0X X} R T T T T T T T T T T T T s c.C.<Xb.9.<.: : : : : : : : ",
": : : : : : < 9.v.;X:Xn.n.Z.n. .T T T T ] T T T T T T T U ;.qXeXwXeXqX;.U T T T T T T T T T T T T  .n.Z.n.n.:X;Xv.w.1 : : : : : ",
": : : : 9.z.;X:XZ.n.C.Z.Z.Z.n.s T Y L F D V M Z J L T T T [.rXwXwXwXrX[.T T T L J Z M M D F L Y T s n.Z.Z.Z.Z.n.Z.:X;Xv.9.> : : ",
": : : z.-X:Xn.Z.Z.Z.Z.Z.Z.Z.Z.s R F l o X X X X @ l D K #.}.rXeXwXwXrX}.#.K D x @ o X X X @ l F R s Z.Z.Z.Z.Z.Z.Z.Z.n.Z.-Xz.: : ",
": : : 6.6.l.b.Z.Z.Z.Z.Z.Z.Z.Z.f.F M X X X X X X X X @ m P Q.wXeXeXeXwXQ.P m @ X X X X X X O X M F f.Z.Z.Z.Z.Z.Z.Z.Z.b.a.t w : : ",
": : : 6.6.6.6.a.b.n.n.Z.Z.Z.Z.v.p B g   X X X X X X h c S -.&XqXwXqX&X-.S c g X X X X X X   g M p v.Z.Z.Z.Z.Z.n.z.6.0 8 0 8 : : ",
": : : 6.6.6.6.5.3.q.z.b.n.Z.Z.Z.l.p S b j j j l C ^ } o.U.B.N.$X*X$XN.B.U.o.} ^ b l j j j b S p l.Z.Z.:Xn.b.z.3.9 8 r r 0 8 : : ",
": : : 5.6.6.6.5.6.5.3.5.s.b.m.Z.1X4X|.].=.=.=.Y.]. X|.A.C.Z.Z.c.c.c.Z.Z.C.A.|. X].Y.=.=.=.]. X4X1X:Xm.z.d.8 9 8 r 0 8 0 8 w : : ",
": : : 5.6.6.6.6.6.6.6.6.3.3.d.N.9XtXrXrXrXrXyX0X6X<XC.Z.Z.Z.Z.Z.Z.Z.Z.Z.Z.Z.C.<X6X0XyXrXrXrXrXtX9XN.q.9 9 8 r 8 8 0 0 0 r 8 : : ",
": : : 6.5.6.5.6.6.6.6.6.5.6.3.K.#X$X&XyX0X7X4XC.c.Z.Z.Z.Z.Z.Z.Z.Z.Z.Z.Z.Z.Z.Z.Z.c.V.1X7X0XyX=X$X#XF.7 8 0 r 0 0 0 0 0 r 8 8 : : ",
": : : 6.5.6.6.6.5.6.5.6.6.6.6.J.oXoXOX$XN.v.>X>XC.Z.Z.Z.Z.Z.Z.Z.Z.Z.Z.Z.Z.Z.Z.Z.Z.:X>Xz.B.$XOXXXoXH.r r r r r 8 w 0 r 0 0 8 : : ",
": : : 6.6.6.6.6.6.5.6.6.5.5.6.J.oXXXoX~.u.q.a.z.-X:XC.Z.Z.Z.Z.Z.Z.Z.Z.Z.Z.Z.Z.:X>Xz.d.4.a ~.oXXXoXH.r r 0 0 8 0 r 0 0 0 8 8 : : ",
": : : 3.6.6.6.6.6.6.6.6.5.6.6.J.oXXXoX.Xy.4.3.6.a.z.m.:XC.Z.Z.Z.Z.Z.Z.Z.Z.:Xm.a.6.y 9 9 r.~.oXXXoXH.r 0 8 0 0 0 8 0 0 8 0 7 : : ",
": : : s.2.6.6.6.6.6.6.6.6.5.6.J.oXXXoX.Xy.4.5.5.3.6.d.a.b.:XZ.Z.Z.Z.Z.:Xb.q.3.t 7 8 8 9 r.~.oXXXoXH.r 0 0 0 0 0 r 8 8 w 3 g.: : ",
": : : 1 d.i 7.6.6.6.6.5.6.5.6.J.oXXXoX.Xy.4.6.6.6.5.3.5.g.d.z.-X:X-Xz.5.y 0 7 8 8 0 r 9 r.~.oXXXoXH.r 0 0 0 r 8 r w w = d.1 : : ",
": : : : <.j % i 4.6.6.6.6.6.6.J.oXXXoX.Xy.4.6.6.6.6.5.5.3.5.6.d.6.y t 8 8 0 8 8 0 8 0 9 r.~.oXXXoXH.r r 0 r 8 w 7 4 $   <.: : : ",
": : : : ; c x x n d u 6.6.6.6.J.oXXXoX.Xy.4.6.5.5.6.6.6.6.6.5.6.y 8 8 0 0 8 0 0 r r 0 9 r.~.oXXXoXH.r w w 0 q 4 & @ @ h ; : : : ",
": : : : - P m c x c x 6 a 3.6.J.oXXXoX.Xy.4.6.6.6.6.6.6.6.5.6.6.y 8 0 8 r 0 0 0 0 0 r 9 r.~.oXXXoXH.w 7 q + # @ @ @ j m - : : : ",
": : : : - T T K A c x z z % p K.XXoXoX.Xy.4.6.6.6.5.6.6.6.6.6.6.y 8 8 r 8 0 0 0 r 0 r 9 r.~.oXoXXXF.* + . . @ h j m Z Z - : : : ",
": : : : - Y T T T K A c x z z ( !.'.XX.Xy.4.6.6.6.6.5.6.6.6.6.6.y 8 0 0 8 8 r 0 0 8 0 9 r..XoX'.^.( f   @ h j m Z Z Z D - : : : ",
": : : : - T T T Y T ] L D m x ! S.G.^.!.y.7.6.6.6.6.6.6.6.6.5.6.y 8 8 8 r 8 0 0 r 8 w e r.!.^.) ) ! @ h l m Z Z Z Z Z Z - : : : ",
": : : : - T T T Y T Y T ] K D _ G.S.S.) 6 p 3.7.6.6.6.6.6.6.6.6.y 8 r 8 8 r w r w e 8 * 6 ( ) ) ) ! l m D D Z Z Z Z Z Z - : : : ",
": : : : - T T T T T Y T T T ] *.~.^.G.) C v 5 i u 7.6.5.6.6.6.6.y 8 8 r 8 0 w e q 4 + X k ( ) D.Y.' D D Z Z Z Z Z Z Z Z - : : : ",
": : : : - T T T Y Y T T T T T R.%XOX~.Y.b v z v % d a 7.6.6.6.6.y 8 8 w w e q 4 $ @ f   n _ W./.`.&.Z Z Z Z Z Z Z Z Z Z - : : : ",
": : : : - T T T T T T T T T T T.oXoX%X_.` A c v z z n 5 p 7.6.6.y 8 w e * + & o f @ @ j ^ W.`.(.(.&.Z Z Z Z Z Z Z Z Z D - : : : ",
": : : : - T T T T T T T T T T T.XXXX+X_.:.U K D c x z z n 5 p 7.4.9 * $ #   g @ @ l m M ` E.).(.(.&.Z Z Z Z Z Z Z Z Z D - : : : ",
": : : : - T T T T T T T T Y T T.XXXX+X_.$.U T Y K D c x z z x % 6 $ #   o @ h l M Z Z B ~ E.).(.).&.Z Z Z Z Z Z Z Z Z Z - : : : ",
": : : : - T T T T T T T T T T T.XXXX+X_.$.U T T T Y Y F c x z z j . @ @ h l V Z Z Z Z M ~ E.).(.).&.Z Z Z Z Z Z Z Z Z Z - : : : ",
": : : : - T T T T T T T T Y T T.XXXX%X_.$.U T T Y Y T Y Y J m c j . h c V Z Z Z Z Z Z M ~ E.).(.(.&.Z Z Z Z Z Z Z Z Z D - : : : ",
": : : : - T T T T T T T T T T T.XXXX+X_.$.U T T Y Y T T T T Y P c c Z Z Z Z Z Z Z Z Z M ~ E.).(.(.&.Z Z Z Z Z Z Z Z Z Z - : : : ",
": : : : - T T Y T T T T T T Y T.XXXX+X_.$.U T T T T T T T T T T L Z Z Z Z Z Z Z Z Z Z M ~ E.).(.).&.Z Z Z Z Z Z Z Z Z D - : : : ",
": : : : - T T T T T T T T T T T.XXXX+X_.$.U T T T T T T T T T T P V Z Z Z Z Z Z Z Z Z M ` E.).(.).&.Z Z Z Z Z Z Z Z Z Z - : : : ",
": : : : - T T T T T T T Y T T T.XXXX+X_.$.U Y T T T Y T T T T T P V Z Z Z Z Z Z Z Z Z B ` E.).(.).&.Z Z Z Z Z Z Z Z Z Z - : : : ",
": : : : - T T T T T T T T T T T.XXXX+X_.$.U T T T Y T T T T Y ] P V Z Z Z Z Z Z Z Z Z M ~ E.).(.(.&.Z Z Z Z Z Z Z Z Z Z - : : : ",
": : : : - T T T T T T T T Y T T.XXXX@X_.$.U Y T T T T T T T T T P V Z Z Z Z Z Z Z Z Z B ~ E.).(.(.&.Z Z Z Z Z Z Z Z Z Z - : : : ",
": : : : - T Y T T T T T T Y T T.XXXX+X_.$.U T T T T T T T T T T P V Z Z Z Z Z Z Z Z Z M ~ E.).(.).&.Z Z Z Z Z Z Z Z Z Z - : : : ",
": : : : - T T T Y Y T T T T T T.XXXX+X_.$.U T T T T T T T Y T T P V Z Z Z Z Z Z Z Z Z M ~ E.).(.).&.Z Z Z Z Z Z Z Z Z D - : : : ",
": : : : - T T T T T T T T T T T.XXXX+X_.$.U T T T T T T T T T T P V Z Z Z Z Z Z Z Z Z M ~ E.).(.(.&.Z Z Z Z Z Z Z Z Z Z - : : : ",
": : : : - U T T T T T T T T T T.XXXX+X_.$.U T T T T T T T T T T P V Z Z Z Z Z Z Z Z Z M ~ E.).(.).&.Z Z Z Z Z Z Z Z Z B - : : : ",
": : : : > i.o.Y Y Y T T T T T T.XXXX+X_.$.U T T T T T T T T T T P V Z Z Z Z Z Z Z Z Z M ~ E.).(.(.&.Z Z Z Z Z Z Z Z [ i.> : : : ",
": : : : : : > t.o.#.T Y T Y T T.oXXX@X_.$.U T T T T T T T T T T P V Z Z Z Z Z Z Z Z Z B ` E.).(.).&.Z Z Z B Z S [ i., : : : : : ",
": : : : : : : : : 7...%.Y U T T.oXXX+X_.$.U T T T T T T T T T T P V Z Z Z Z Z Z Z Z Z M ~ E.).(.).&.Z B Z / ..t.: : : : : : : : ",
": : : : : : : : : : : 2.+.%.Y T.XXXX+X_.$.U T T T T T T T T T T P V Z Z Z Z Z Z Z Z Z M ` E.).(.).' Z {  .7.: : : : : : : : : : ",
": : : : : : : : : : : : : 1.P.Y.XXXX+X_.$.U T T T T T T T T T T P V Z Z Z Z Z Z Z Z Z M ~ E.).(./.Y.O.2.: : : : : : : : : : : : ",
": : : : : : : : : : : : : : : e.L.$XXX).$.U Y T T T T T T T T T P V Z Z Z Z Z Z Z Z Z B ~ W./.}.U.e.: : : : : : : : : : : : : : ",
": : : : : s.uXuXs.: : : : : : : : 2.H.{.$.H T T T T T Y T T T T P V Z Z Z Z Z Z Z Z Z G ^ {.F.e.: : : : : : : : : : : : : : : : ",
": : : : : uXpXpXuX: : : : : : : : : : 2.p.+.T H T T T T T T T T P V Z Z Z Z Z Z Z G B +.a 2.: : : : : : : : : : : : : : : : : : ",
": : : : : uXpXpXuX: : : : : : : : : : : : 2 r.I.Y E T T T T T T P V Z Z Z Z Z N B O.r.2 : : : : : : : : : : : : : : : : : : : : ",
": : : : : s.uXuXs.: : : : : : : : : : : : : : 1 t.P.Y I T T T T P V Z Z Z N B O.t.2 : : : : : : : : : : : : : : : : : : : : : : ",
": : : : : : : : : : : : : : : : : : : : : : : : : 1 2.P.] I Y ] P V Z N Z O.2.1 : : : : : : : : : : : : : : : : : 2XaX2X: : : : ",
": : : : : : : : : : : : : : : : : : : : : : : : : : : < 1.h.#.R P N S h.1.< : : : : : : : : : : : : : : : : : : : pXpXaX: : : : ",
": : : : : : : : : : : : : : : : : : : : : : : : : : : : : > <.h.| p.<.> : : : : : : : : : : : : : : : : : : : : : 2XaX2X: : : : ",
": : : : : : : : : : : : : : : : : : : : : : : : : : : : : : : : : : : : : : : : : : : : : : : : : : : : : : : : : : : : : : : : ",
": : : : : : : : : : : : : : : : : : : : : : : : : : : : : : : : : : : : : : : : : : : : : : : : : : : : : : : : : : : : : : : : "
};
