/* XPM */
static char *_1f507770eff46eec083e34c250415a9vSc9OPVpTk8D53AU[] = {
/* columns rows colors chars-per-pixel */
"64 64 120 2 ",
"   c #01772B",
".  c #03782D",
"X  c #077A30",
"o  c #0B7C33",
"O  c #117F38",
"+  c gray37",
"@  c #A77755",
"#  c #AA7452",
"$  c #AD7855",
"%  c #A47D5A",
"&  c #B07B57",
"*  c #B27D5A",
"=  c #8A7164",
"-  c #897867",
";  c #867F6C",
":  c #897868",
">  c #D46F66",
",  c #C07E6E",
"<  c #D47166",
"1  c #15813B",
"2  c #19833E",
"3  c #1D8541",
"4  c #228744",
"5  c #248847",
"6  c #278949",
"7  c #2D8C4D",
"8  c #308D4E",
"9  c #348E52",
"0  c #3C9156",
"q  c #3E9358",
"w  c #44935B",
"e  c #49965E",
"r  c #479460",
"t  c #4C9860",
"y  c #4B9E69",
"u  c #559666",
"i  c #549A65",
"p  c #5B9A66",
"a  c #559768",
"s  c #5A976A",
"d  c #5D9B6A",
"f  c #629867",
"g  c #67976F",
"h  c #669B6B",
"j  c #6D996A",
"k  c #76976B",
"l  c #7A966B",
"z  c #74986B",
"x  c #7D8D72",
"c  c #679770",
"v  c #6B9671",
"b  c #759373",
"n  c #69A06F",
"m  c #6FA171",
"M  c #72A172",
"N  c #7BA275",
"B  c #9F825E",
"V  c #A0805D",
"C  c #86816D",
"Z  c #8D8F68",
"A  c #9C8460",
"S  c #958B65",
"D  c #988862",
"F  c #918E68",
"G  c #85936A",
"H  c #8A9169",
"J  c #838770",
"K  c #808A71",
"L  c #9D9772",
"P  c #A38C68",
"I  c #BA8462",
"U  c #BF8967",
"Y  c #A48B71",
"T  c #BD9B77",
"R  c #BE9F7B",
"E  c #82A477",
"W  c #86A478",
"Q  c #89A479",
"!  c #94A47B",
"~  c #9AA47C",
"^  c #A5A37C",
"/  c #ACA27C",
"(  c #B3A17C",
")  c #B8A07C",
"_  c #C18D6A",
"`  c #C7916F",
"'  c #CF8C70",
"]  c #C09172",
"[  c #CE9976",
"{  c #C49C79",
"}  c #C99C78",
"|  c #D29F78",
" . c #85BE9A",
".. c #88C09C",
"X. c #89C09D",
"o. c #90C4A3",
"O. c #91C4A4",
"+. c #E7C984",
"@. c #E7CA85",
"#. c #EFD789",
"$. c #EFD78A",
"%. c #F1DB8A",
"&. c #F2DC8B",
"*. c #F5E38C",
"=. c #F6E48E",
"-. c #F8E98F",
";. c #F9EA8F",
":. c #F9EB8F",
">. c #F9EB90",
",. c #E4F1E9",
"<. c #E6F2EA",
"1. c #E7F2EB",
"2. c #E6F2EA",
"3. c #EDF5F0",
"4. c #EEF6F1",
"5. c #F3F9F5",
"6. c #F4F9F6",
"7. c #F9FCFA",
"8. c white",
"9. c white",
/* pixels */
"                                                                                                                                ",
"                                                x x .                                                             . K x         ",
"                                                C = w                                                             w = C         ",
"                                                s = x         K K .                                 . K K         x = s         ",
"                                                O - = 6       C = 9                                 9 = C       6 = - O         ",
"                                                  v = v       v = v                                 v = v       v = v           ",
"                                                  5 = - O     9 = ; .                             . C = 9     O - = 7           ",
"                                                    x = s     . ; = 9       X K x     x K X       9 = ; .     s = x             ",
"                                                    w = - x v s x = v       v = J     J = c       v = x s v x - = w             ",
"                              X O.3.3.O.X           . x = = = = = = - b u e = = 9     9 = = r a b - = = = = = = x .             ",
"                              o.8.8.8.8.X.              O 9 u v x ; = = = = = g         c = = = = = : K b d w 4 .               ",
"                              3.8.8.8.8.3.                          6 u b - = 9         9 = - b a 6                             ",
"                              3.8.8.8.8.3.                                v = v         v = v                                   ",
"                              o.8.8.8.8.X.                                9 = ; .     . C = 9                                   ",
"                              X O.3.3.O.X                                 . C = 9     9 = ; .                                   ",
"                                                                            v = v     v = v                                     ",
"                                                                            9 = ; . . C = 9                                     ",
"                                                                  # # # V z o Y ] } } ] Y o N R [ [ [          .5. .            ",
"                                                                  V # # # $ T [ [ [ [ [ [ { [ [ [ [ R         7.8.5.            ",
"                                                                  j # # # ` [ [ [ [ [ [ [ [ [ [ [ [ N          .6. .            ",
"                                                                  X j V I [ [ [ [ [ [ [ [ [ [ [ R N X                           ",
"                                                                        / [ [ [ + + [ [ [ [ [ /                                 ",
"                                                        e , , w         { [ [ [ + + [ [ [ [ [ }                                 ",
"                                                        , > > ,         [ [ [ [ [ [ [ [ [ [ [ [                                 ",
"                                                        , > < < [ [ [ [ [ [ [ [ [ [ [ [ [ [ [ [                                 ",
"                                                        w , < ' [ [ [ [ [ [ [ [ [ [ [ [ [ [ [ [                                 ",
"                            y <.<.y                         { [ [ [ [ [ [ [ [ [ [ [ [ [ [ [ [ [                                 ",
"                            <.8.8.<.                        ^ [ [ [ [ [ [ [ [ [ [ [ [ [ [ [ [ [                                 ",
"                            <.8.8.<.                        e [ [ [ [ [ [ [ [ [ [ [ [ [ [ [ [ R                                 ",
"                            y <.<.y                           N [ [ [ [ [ [ [ [ [ [ [ [ [ [ [ N                                 ",
"          . h                                                   e ^ } [ [ [ [ [ [ [ [ [ [ R N X                                 ",
"          l F                                                         > > > > > > > > > >                                       ",
"        q # B .                                                       < > > > > > > > > >                                       ",
"        Z # # j 1             X 9 e i t 9 1                           > > > > > > > > > >                                       ",
"        % # # # # V j .   7 ! } [ [ [ [ [ [ ( W q .                   > > > > < < > > > >                                       ",
"        % # # # # # # l N [ [ [ [ [ [ [ [ [ [ [ [ R N 7           . M [ [ [ | &.%.| [ [ [ 1                                     ",
"        S # # # # # # _ [ [ [ [ [ [ [ [ [ [ [ [ [ [ [ [ ( N d i M ( [ [ [ [ @.-.>.@.[ [ [ 0                                     ",
"        h # # # # # U [ [ [ [ [ [ [ * # # * [ [ [ [ [ [ [ [ [ [ [ [ [ [ [ [ *.-.>.=.[ [ [ d                                     ",
"        o S # # # * [ [ [ [ [ [ [ [ * # # * [ [ [ [ [ [ [ [ [ [ [ [ [ [ [ [ #.-.-.#.[ [ [ N                                     ",
"          O j B # _ [ [ [ [ [ [ [ [ [ [ [ [ [ [ [ [ [ [ [ [ [ [ [ [ [ [ [ [ [ [ [ [ [ [ [ E                                     ",
"                X { [ [ * # # * [ [ [ [ [ [ [ [ [ [ [ [ [ [ [ * # # * [ [ [ [ [ [ [ [ [ [ W                                     ",
"                1 [ [ [ * # # * [ [ [ [ [ [ [ [ [ [ [ [ [ [ [ * # # * [ [ [ [ [ [ [ [ [ [ N                                     ",
"                1 [ [ [ [ [ [ [ [ [ [ [ [ [ [ * # # * [ [ [ [ [ [ [ [ [ [ [ [ [ [ [ [ [ [ L .                                   ",
"                X [ [ [ [ [ [ [ [ [ [ [ [ [ [ * # # * [ [ [ [ [ [ [ [ [ [ [ [ [ [ [ [ [ [ & H o                                 ",
"                  ( [ [ [ [ [ [ [ [ [ [ [ [ [ [ [ [ [ [ [ [ [ [ [ [ [ [ [ [ [ [ [ [ [ [ ` # # S 1                               ",
"                  E [ [ [ [ [ [ [ [ [ [ [ [ [ [ [ [ [ [ [ [ [ [ [ [ [ [ [ [ [ [ [ [ [ [ * # # # A 4                             ",
"                  0 [ [ [ [ [ [ [ [ [ [ [ [ [ [ [ [ [ [ [ [ [ [ [ [ [ [ [ [ [ [ [ [ [ h S # # # # V 7                           ",
"                    / [ [ [ [ [ [ [ [ [ [ [ [ [ [ [ [ [ [ [ [ [ [ [ [ [ [ [ [ [ [ ( 0   o H # # # # % w              .5. .      ",
"                    p [ [ [ [ [ [ [ [ [ [ [ [ [ [ [ [ [ [ [ [ [ [ [ [ [ [ [ R Q w .       X G # # # # @ e           7.8.5.      ",
"                e R [ [ [ [ [ [ [ [ [ [ [ [ [ [ [ [ [ [ [ [ } ) R [ [ [ [ [ !               . k # # # # B            .6. .      ",
"    y <.<.y   . R [ [ [ [ [ [ [ / V # $ & & * * * P q 7 2 X     9 [ [ [ [ [ [ e                 k # # # V                       ",
"    <.8.8.<.  3 [ [ [ [ [ [ [ Q 6 # # # # # # # l o               M [ [ [ [ [ ^                 H # # # k                       ",
"    <.8.8.<.  w [ [ [ [ R W 7   w # # # # A k 7                     m [ [ [ [ [               1 @ # # # 7                       ",
"    y <.<.y   h [ [ [ R         f # # # V                             7 [ [ [ [               f # # # D                         ",
"              Q [ [ [ ~         k # # # H                               [ [ [ [               S # # # f                         ",
"              ^ [ [ [ M         F # # # j                               [ [ [ [             8 # # # # 2                         ",
"              { [ [ [ e         % # # # w                               [ [ [ [ 3           k # # # G                           ",
"            2 [ [ [ [ 2       2 # # # # 2                               R [ [ [ !           u S # # e                           ",
"            w [ [ [ R         q # # # V                                 n [ [ [ [ w             7 j X                           ",
"            h [ [ [ ~         p # # # H                                 X ) [ [ [ ) X                                           ",
"            W [ [ [ M         k # # # j                                   i [ [ [ [ M                                           ",
"            ^ [ [ [ e         F # # # w                                   . / [ [ [ } 4                                         ",
"            { [ [ [ 2         % # # # 2                                     q [ [ [ [ ~                                         ",
"                                                                                                                                "
};
