/* XPM */
static char *fa17804900f0408f91791841e0f0da86BOiktDraiJzQRlLG[] = {
/* columns rows colors chars-per-pixel */
"64 64 198 2 ",
"   c #793F28",
".  c #01772B",
"X  c #04792D",
"o  c #0A782F",
"O  c #077A30",
"+  c #0B7C33",
"@  c #167D38",
"#  c #227D3D",
"$  c #33733A",
"%  c #3B7842",
"&  c #417645",
"*  c #9E2F3B",
"=  c #A3333D",
"-  c #CB3536",
";  c #CC3C3D",
":  c #D13E3C",
">  c #864D37",
",  c #9F3541",
"<  c #A23A46",
"1  c #A53C48",
"2  c #B43E45",
"3  c #CC3E40",
"4  c #9D5755",
"5  c #A5424D",
"6  c #AC434D",
"7  c #BA434A",
"8  c #B7444C",
"9  c #A84853",
"0  c #B44C55",
"q  c #B85555",
"w  c #A35153",
"e  c #9C615C",
"r  c #98685F",
"t  c #A96B5B",
"y  c #B5655B",
"u  c #AA5B60",
"i  c #8E7C6A",
"p  c #8B7867",
"a  c #9B7269",
"s  c #917062",
"d  c #9E6F69",
"f  c #B66C62",
"g  c #B86B63",
"h  c #AB7465",
"j  c #AA7967",
"k  c #B17C68",
"l  c #C54447",
"z  c #CE4445",
"x  c #C34448",
"c  c #CD4648",
"v  c #CC494B",
"b  c #C74F4E",
"n  c #D14445",
"m  c #D04D4F",
"M  c #D04648",
"N  c #CF4D51",
"B  c #D04D50",
"V  c #C95758",
"C  c #D15457",
"Z  c #C6605D",
"A  c #D05E68",
"S  c #D36266",
"D  c #D36C72",
"F  c #D77578",
"G  c #15813D",
"H  c #1A823E",
"J  c #1B8541",
"K  c #2C8446",
"L  c #2A8C4D",
"P  c #248746",
"I  c #32894D",
"U  c #378D54",
"Y  c #349154",
"T  c #38945A",
"R  c #3E9660",
"E  c #4C8E5A",
"W  c #468A55",
"Q  c #52895A",
"!  c #48915C",
"~  c #4B9E69",
"^  c #489D66",
"/  c #529D69",
"(  c #658C66",
")  c #798A69",
"_  c #4EA16C",
"`  c #6AA274",
"'  c #8D8267",
"]  c #B4806C",
"[  c #C28F7C",
"{  c #D27F8D",
"}  c #D67B83",
"|  c #68AB86",
" . c #79B494",
".. c #71AB86",
"X. c #85BE9A",
"o. c #BBAF95",
"O. c #BE91A8",
"+. c #8FBCAC",
"@. c #B6AFAC",
"#. c #CA9885",
"$. c #D28698",
"%. c #D2848F",
"&. c #E69794",
"*. c #DCAB99",
"=. c #CBB29D",
"-. c #F3AB9D",
";. c #F2A799",
":. c #E1B19F",
">. c #D28FA1",
",. c #DB9EA0",
"<. c #D59DB2",
"1. c #E29FA3",
"2. c #D0A2BD",
"3. c #E5A8A6",
"4. c #F3AEA1",
"5. c #E6B7A6",
"6. c #F3B1A4",
"7. c #F2B8AD",
"8. c #E7B5BA",
"9. c #E8B6BA",
"0. c #E9B6B6",
"q. c #F3BDB1",
"w. c #89C09D",
"e. c #91C4A4",
"r. c #8EC2A2",
"t. c #AECEB9",
"y. c #D9CABC",
"u. c #EEC0AE",
"i. c #F5C6B4",
"p. c #F6C8B7",
"a. c #F5C5BC",
"s. c #F6CAB9",
"d. c #F9CBBA",
"f. c #CEB8DF",
"g. c #CFB6DC",
"h. c #CAADCF",
"j. c #E7BDC0",
"k. c #D1BFE3",
"l. c #CDBCE5",
"z. c #A7C7C7",
"x. c #B0CACF",
"c. c #B3CCD3",
"v. c #BADAC8",
"b. c #D7C0DB",
"n. c #EBC3C6",
"m. c #F6CEC0",
"M. c #EFD1CF",
"N. c #F6D3C6",
"B. c #F6D5C9",
"V. c #FBD6C7",
"C. c #E8CDD8",
"Z. c #F3DBD8",
"A. c #EBD4D9",
"S. c #C9E1D5",
"D. c #D3E7DD",
"F. c #F6E4DD",
"G. c #C9C7EA",
"H. c #C7CCF4",
"J. c #CDCCF6",
"K. c #C6C6FB",
"L. c #C7C9FD",
"P. c #CBCBFC",
"I. c #C8C7F5",
"U. c #D0CFFA",
"Y. c #CDD3FE",
"T. c #CED8FF",
"R. c #D3D4FC",
"E. c #D5D9FE",
"W. c #DBDDFC",
"Q. c #DADEF6",
"!. c #CFCEE4",
"~. c #E7DCEB",
"^. c #F1DFE2",
"/. c #E3DDF3",
"(. c #E3DFF8",
"). c #D9EBE3",
"_. c #DFE0FC",
"`. c #ECE4E5",
"'. c #F3E5E6",
"]. c #F6E9E5",
"[. c #F2EAED",
"{. c #F5E9E8",
"}. c #E6F2EA",
"|. c #E1E1FD",
" X c #E7E9FD",
".X c #EBECFC",
"XX c #F3EEF2",
"oX c #EDF5F0",
"OX c #EEF1FD",
"+X c #F4F4F5",
"@X c #F9F5F1",
"#X c #F3F9F5",
"$X c #F3F5FB",
"%X c #F7FAFD",
"&X c #FAFFFF",
"*X c #F9FFFF",
"=X c white",
"-X c #F9FDFD",
/* pixels */
". . . . . . . . . . . . . . . . . . . . . . . . . . . . . . . . . . . . . . . . . . . . . . . . . . . . . . . . . . . . . . . . ",
". . . . . . . . . . . . . . . . . . . . . . . . . . . . . . . . . . . . . . . . . . . . . . . . . . . . . . . . . . . . . . . . ",
". . . . . . . . . . . . . . . . . . . . . . . . . . . . . . . . . . . . . . . . . . . . . . . . . . . . . . . . . . . . . . . . ",
". . . . . . . . . . . . . . . . . . . . . . . . X % ) h V m z z z B M z z z z z x 7 0 d ( % . . . . . . . . . . . . . . . . . . ",
". . . . . . . . . . . . . . . . . . . . . . . K ' V - ; z z z z z z z z z n n n n n z 2 = u ( + . . . . . . . . . . . . . . . . ",
". . . . . . . . . . . . . . . . . . . . . . E f ; z z z z z z z z z z z z z x l l n n n l 1 < p # . . . . . . . . . . . . . . . ",
". . . . . . . . O e.oXoXe.O . . . . . . . E q ; z z z z z z z z z z z z z 7 5 6 6 8 z n n l 6 < p H . . . . . . . . . . . . . . ",
". . . . . . . . e.=X=X=X=Xw.. . . . . . I y ; z z z z z z z z z z z z z z l 7 8 6 5 6 7 z n x 5 1 ) . . . . . . . . . . . . . . ",
". . . . . . . . oX=X=X=X=XoX. . . . . X ' ; z z z z z z z z z z z z z z z z z z z x 6 5 7 z z 8 1 9 Q . . . . . . . . . . . . . ",
". . . . . . . . oX=X=X=X=XoX. . . . . W b 3 z z z z z z z z z z z z z z z z z z z z l 6 5 x n z 6 < i @ . . . . . . . . . . . . ",
". . . . . . . . e.=X=X=X=Xw.. . . . X ) - z z z z z z z z z z z z z z z z z z z z z n x 6 6 z z 7 5 0 & . . . . . . . . . . . . ",
". . . . . . . . O e.oXoXe.O . . . . @ h ; z z z z z z z z z z z z z z z z z z z z z z z 8 6 x z x 5 < ( . . . . . . . . . . . . ",
". . . . . . . . . . . . . . . . . . $ Z z z z z z z z z z z z z z z z z z z z z z z z z x 6 8 n x 6 , ) X . . . . . . . . . . . ",
". . . . . . . . . . . . . . . . . . % v z z z z z z z z z z z z z z z z z z z z z z z z z 5 2 n l 6 < i @ . . . . . . . . . . . ",
". . . . . . . . . . . . . . . . . . ! - ; 3 3 3 3 3 3 3 3 3 3 3 3 3 3 3 3 3 3 3 3 3 3 3 z 9 0 : l 6 < a # . . . . . . . . . . . ",
". . . . . . . . . . . . . . . . G r.t.0.8.8.8.8.8.8.9.8.8.8.9.8.8.8.8.8.8.8.8.8.9.8.8.8.8.h.h.$.; 6 < a # . . . . . . . . . . . ",
". . . . . . . . . . . . . . . . T %X*X*X*X*X*X*X*X*X*X*X*X*X*X*X*X*X*X*X*X*X*X*X*X*X*X*X*XE.T.G.l 6 < a # . . . . . . . . . . . ",
". . . . . . . . . . . . . . . . T %X%X%X%X%X%X%X%X%X%X%X%X%X%X%X%X%X%X%X%X%X%X%X%X%X%X%X%XR.P.f.v 6 < a # . . X.#XX.. . . . . . ",
". . . . . . . . . . . . . . . . T %X%X%X%X%X%X%X%X%X%X%X%X%X%X%X%X%X%X%X%X%X%X%X%X%X%X%X%XR.P.f.v 6 < a # . . -X=X#X. . . . . . ",
". . . . . . . . . . . . . . . . L %X%X%X%X%X%X%X%X%X%X%X%X%X%X%X%X%X%X%X%X%X%X%X%X%X%X%X%XR.Y.g.; 6 < a # . . X.#XX.. . . . . . ",
". . . . . . . . . . . . . . . . H t.+X%X%X%X%X+X+X+X+X+X+X+X+X+X+X+X+X+X+X+X+X+X+X+X%X%X|.P.J.<.l 0 9 a # . . . . . . . . . . . ",
". . . . . . . . . . . . . . X / o.o.y.*X%X*X].N.N.N.N.N.N.N.N.N.N.N.N.N.N.N.N.N.N.B.@XW.R.R.3.&.3.!.G.@.U . . . . . . . . . . . ",
". . . . . . . . . . . . . . G 4.-.-.a.*X%X*XF.s.p.p.s.s.d.p.p.p.p.p.p.d.d.p.p.p.p.m.@XR.L.J.6.6.-.n.R.P.z.H . . . . . . . . . . ",
". . . . . . . . . . . . . . Y 6.4.-.a.*X%X*XF.s.p.s.s.s.i.s.s.p.s.s.s.s.i.d.s.s.p.m.@XE.L.J.4.4.-.a. XP.K.| X . . . . . . . . . ",
". . . . . . ~ }.}.~ . . . . Y 6.4.-.a.*X%X*XF.s.p.s.s.*.k 5.d.s.s.s.s.#.] i.s.s.p.N.@XE.L.J.4.4.-.a..XR.L.x.G . . . . . . . . . ",
". . . . . . }.=X=X}.. . . . J 4.-.;.a.*X%X*XF.s.p.s.s.[   #.V.s.s.s.d.t > 5.d.s.p.m.@XE.L.J.4.-.;.a.OXR.L.c.G . . . . . . . . . ",
". . . . . . }.=X=X}.. . . . X ` =.=.y.*X%X*XF.s.s.s.s.*.h :.d.s.s.s.s.#.k i.s.s.p.N.@XE.L.J.7.7.a.{. XL.K...X . . . . . . . . . ",
". . . . . . ~ }.}.~ . . . . . . P P ` *X%X*X].d.s.s.s.p.q.s.s.p.p.p.s.p.u.s.s.s.p.B.@XE.L.H./ `.@X$XR.K.c.J . . . . . . . . . . ",
". . . . . . . . . . . . . . . . . . ^ %X%X%X@Xm.p.s.s.d.d.p.6.6.6.6.7.d.d.p.s.s.i.Z.-XR.L.H.. Y t.W.R.+.P . . . . . . . . . . . ",
". . . . . . . . . . . . . . . . . . _ %X%X%X*XB.p.s.s.s.s.q.-.4.4.4.4.a.s.s.s.p.p.].*XR.L.H.. . + G G + . . . . . . . . . . . . ",
". . . . . . . . . . . . . . . . . . _ %X%X%X%X].d.m.A./.|.C.-.4.-.-.6./.(.~.M.p.N.@X*XR.L.H.. . . . . . . . . . . . . . . . . . ",
". . . . . . . . . . . . . . . . X G | %X%X%X%X%X`.|.|.|.|.(.n.7.7.7.C.|.|.|.|.~.[.*X*XE.P.H.L J X . . . . . . . . . . . . . . . ",
". . . . . . . . . . . . . . . L  .S.#X%X%X%X%X X|.|.|.|.|.|.|.|.|.|.|.|.|.|.|.|.|.$X%X%XOX|.R.!.| P . . . . . . . . . . . . . . ",
". . . . . . . . . . . . . O | }.%X%X%X%X%X%X.X|.|.|.|.|.|.|.|.|.|.|.|.|.|.|.|.|.|.|.$X%X%X*X$XE.L.G.~ X . . . . . . . . . . . . ",
". . . . . . . . . . . . X X.%X%X%X%X%X%X*X$X|.|.|.|.|.|.|.|.|.|.|.|.|.|.|.|.|.|.|.W. X%X%X%X*X%X_.K.J.| X . . . . . . . . . . . ",
". . . . . . . . . . . . | %X%X%X%X%X%X%X%X X_.|.|.|.|.|.|.|.|.|.|.|.|.|.|.|.|.|.|.|._.$X%X%X%X%X%XW.K.G.T . . . . . . . . . . . ",
". . . . . . . . . . . L ).%X%X%X%X%X%X%X$X|.|.|.|.|.|.|.|.|.|..X%X|.|.|.|.|.|.|.|.|.W..X%X%X%X%X*XOXR.K.z.H . . . . . . . . . . ",
". . . . . . . . . . . X.%X%X%X%X%X%X%X*X$X|.|.|.|.|.|.|.|.W. X%X*X$X|.|.|.|.|.|.|.|.|.|.%X%X%X%X%X*XW.K.P.T . . . . . . . . . . ",
". . . . . . . . . . O v.%X%X%X%X%X%X%X%XOX|.|.|.|.|.|.|.|.|.$X%X%X%X.X|.|.|.|.|.|.|.|.|.%X%X%X%X%X*X XP.K. .O . . . . . . . . . ",
". . . . . . . . . . P S.%X%X%X%X%X%X%X*XOX|.|.|.|.|.|.|.|.$X%X%X%X%X%XOX|.|.|.|.|.|.|.|.%X%X%X%X%X*XOXR.L.z.G . . . . . . . . . ",
". . . . . . . . . . Y D.%X%X%X%X%X%X%X*X$X|.|.|.|.|.|..X%X%X%X%X%X%X%X%X$X X|.|.|.|.|.|.%X%X%X%X%X*XOXR.L.c.H . . . . . . . . . ",
". . . . . . . . . . L S.%X%X%X%X%X%X%X%X%XOX X.X.X$X$X%X%X%X%X%X%X%X%X%X%X%X$XOX.X X.X$X%X%X%X%X%X%X.XR.L.z.G . . . . . . . . . ",
". . . . . . . . . . + v.%X%X%X%X%X%X%X%X%X%X%X%X%X%X%X%X%X%X%X%X%X%X%X%X%X%X%X%X%X%X%X%X%X%X%X%X%X*X.XP.K. .O . . . . . . . . . ",
". . . . . . . . . . . e.%X%X%X%X%X%X%X%X%X%X%X%X%X%X%X%X*X*X%X%X%X%X%X*X%X%X%X%X%X%X%X%X%X%X%X%X%X*X|.L.L.R . . . . . . . . . . ",
". . . . . . . . . . . Y ).%X%X%X%X%X%X%X%X%X%X%X%X%X%X%X.X.X%X%X%X%X%X XOX%X%X%X%X%X%X%X%X%X%X%X*X$XR.L.c.J . . . . . . . . . . ",
". . . . . . . . . . . . @.%X*X%X%X%X%X%X%X%X%X%X%X%X%X$XR.P..X*X=X%X|.L.|.%X%X%X%X%X%X%X%X%X%X%X%X|.P.I.... . . . . . . . . . . ",
". . . . . . . . . . . Q V 8.*X*X%X%X%X%X%X%X%X%X%X%X%X%X XL.P.W.|.E.L.R.$X%X%X%X%X%X%X%X%X%X%X*X XP.T.O.4 P . . . . . . . . . . ",
". . . . . . . . . . P t - N 3.*X*X%X%X%X%X%X%X%X%X%X%X%X%X XR.L.K.P.W.OX%X%X%X%X%X%X%X%X%X*X%X|.T.U.>.6 * i @ . . . X.#XX.. . . ",
". . . . . . . . . . ) ; z 3 c F 9.XX*X%X%X%X%X%X%X%X%X%X%X%X$XOXOX$X%X%X%X%X%X%X%X%X%X%X$X XE.R.2.A z 2 5 < I . . . -X=X#X. . . ",
". . . . . . . . . H h ; z z z 3 c %.*X%X%X%X%X%X%X%X%X%X%X%X%X*X*X%X%X%X%X%X%X%X%X%X%X*XR.P.G.C m ; n x 6 1 i o . . X.#XX.. . . ",
". . ~ }.}.~ . . . E v z z z z z ; S [.*X%X%X%X%X%X%X%X%X%X%X%X%X%X%X%X%X%X%X%X%X%X%X%X$XY.P.k.; z z z z 8 5 6 @ . . . . . . . . ",
". . }.=X=X}.. . . ) - z z z z z z c 3.*X*X*X*X*X*X%X%X%X%X%X%X%X%X%X%X%X%X%X%X%X*X*X*X_.Y.J.{ z z z z n 8 5 1 U . . . . . . . . ",
". . }.=X=X}.. . . ' ; z z z z z z z m 3.'.XX'.Z.[.*X%X%X%X%X%X%X%X%X%X%X%X$X$X$X'.^.(.J.l.>.z z z z z n x 6 5 ) . . . . . . . . ",
". . ~ }.}.~ . . . j ; z z z z z z z z ; C F S ; F [.*X%X%X%X%X%X%X%X%X*X$XE.Y.b.C v %.$.C ; z z z z z n x 6 5 p . . . . . . . . ",
". . . . . . . . . h ; z z z z z z z z z z ; 3 z ; } '.*X%X%X%X%X%X%X*X$XW.Y.k.D - z ; ; z z z z z z z n l 6 5 r . . . . . . . . ",
". . . . . . . . . f ; z z z z z z z z z z z z z z ; D n.%X%X%X%X*X%X XR.P.2.S - z z z z z z z z z z z n l 6 5 e . . . . . . . . ",
". . . . . . . . . f ; z z z z z z z z z z z n z z z ; N j.*X%X$X X_.R.P.<.c ; z z z z z n n n z z z z n l 6 5 e . . . . . . . . ",
". . . . . . . . . f ; z z z z n z z z z z z z z z z z z ,.*X%X$X$XE.P.J.} ; z z z z z z z z z n z z z z l 6 5 e . . . . . . . . ",
". . . . . . . . . g ; z z z z z z z z z z z z z z z z z 1.*X%X%X=X|.P.J.{ z z z z z z z z z z z z z z z l 6 5 e . . . . . . . . ",
". . . . . . . . . h ; z z z z z z z z z z z z n z z z c 1.*X%X%X*X_.P.J.{ z z z z z z z z z z z z z z n l 6 5 s . . . . . . . . ",
". . . . . . . . . E q z l l l l l l l l l l l l l l z l ,.%X+X#X%XQ.H.I.%.z l l l l l l l l l l l l l l 6 5 w L . . . . . . . . ",
". . . . . . . . . . . . . . . . . . . . . . . . . . . . . . . . . . . . . . . . . . . . . . . . . . . . . . . . . . . . . . . . ",
". . . . . . . . . . . . . . . . . . . . . . . . . . . . . . . . . . . . . . . . . . . . . . . . . . . . . . . . . . . . . . . . ",
". . . . . . . . . . . . . . . . . . . . . . . . . . . . . . . . . . . . . . . . . . . . . . . . . . . . . . . . . . . . . . . . "
};
