/* XPM */
static char *_48fe35b8e424cbcf5e264dec88c6732IkgmH1bSDACuGX3s[] = {
/* columns rows colors chars-per-pixel */
"64 64 126 2 ",
"   c #01772B",
".  c #04792D",
"X  c #077A30",
"o  c #0C7D34",
"O  c #13813A",
"+  c #1A843F",
"@  c #1C8642",
"#  c #218945",
"$  c #258B4A",
"%  c #2A8D4F",
"&  c #2C8F51",
"*  c #2F9054",
"=  c #319156",
"-  c #35955A",
";  c #3A975F",
":  c #3B9761",
">  c #3D9963",
",  c #4E9C59",
"<  c #539E5A",
"1  c #449D6A",
"2  c #4B9E69",
"3  c #499F70",
"4  c #47A06D",
"5  c #5CA568",
"6  c #4CA275",
"7  c #4FA579",
"8  c #5FA574",
"9  c #52A37C",
"0  c #5AA67A",
"q  c #54AB7F",
"w  c #72AA61",
"e  c #7FBB76",
"r  c #9AB457",
"t  c #94B45D",
"y  c #99B55D",
"u  c #A4B654",
"i  c #AAB751",
"p  c #AAB852",
"a  c #A3B95D",
"s  c #A9BF5C",
"d  c #85B161",
"f  c #8BB261",
"g  c #89BC6F",
"h  c #93B560",
"j  c #95BE67",
"k  c #C7BE4B",
"l  c #CEBF49",
"z  c #D3C14A",
"x  c #DCC44A",
"c  c #C4C154",
"v  c #E9C547",
"b  c #E3C549",
"n  c #E9C648",
"m  c #7F4E98",
"M  c #7B5597",
"N  c #7C5499",
"B  c #5B6F8F",
"V  c #57768F",
"C  c #5B6F90",
"Z  c #6F6799",
"A  c #677599",
"S  c #814E98",
"D  c #51878E",
"F  c #52888F",
"G  c #499587",
"H  c #4A9E86",
"J  c #499389",
"K  c #4B9E88",
"L  c #5E8799",
"P  c #5E889A",
"I  c #5A979A",
"U  c #599B9A",
"Y  c #4CA186",
"T  c #4DA28A",
"R  c #51A685",
"E  c #56AD83",
"W  c #58AE87",
"Q  c #50A58E",
"!  c #50A88F",
"~  c #5AB18B",
"^  c #54A691",
"/  c #54AD94",
"(  c #58A995",
")  c #59A19A",
"_  c #5CAB9A",
"`  c #56B196",
"'  c #5CB595",
"]  c #57B398",
"[  c #5AB69B",
"{  c #67B88A",
"}  c #68B98A",
"|  c #60AE9B",
" . c #61B791",
".. c #6FB6A6",
"X. c #71B6A8",
"o. c #72B7A8",
"O. c #73B8A8",
"+. c #85BE9A",
"@. c #89C09D",
"#. c #90C4A3",
"$. c #91C4A4",
"%. c #86C1B5",
"&. c #8FC6BA",
"*. c #90C6BB",
"=. c #A3CFC6",
"-. c #A3CFC6",
";. c #B7D7D2",
":. c #BFDCD6",
">. c #C0DCD7",
",. c #C1DCD8",
"<. c #C2DCD8",
"1. c #E4EDEC",
"2. c #E4F1E9",
"3. c #E6F2EA",
"4. c #E7F2EB",
"5. c #E6F2EA",
"6. c #ECEFF0",
"7. c #EDF0F1",
"8. c #EDF5F0",
"9. c #EEF6F1",
"0. c #EDF0F1",
"q. c #F3F9F5",
"w. c #F4F9F6",
"e. c #F9FCFA",
"r. c white",
"t. c white",
/* pixels */
"                                                              f f                                                               ",
"                                                            + b b @                                                             ",
"                                                            d v v d                                                             ",
"                                                          O x v n b O                                                           ",
"                                                      . # t v v v v h # .                                                       ",
"                                                < a c b v v v v v v n v b c a <                                                 ",
"                                                w v v n v v n v v v v v v n v w                                                 ",
"                                                  d v v v n n v v v v v n n f                                                   ",
"                          X $.9.9.$.X               f n n n v v v n v v n h                                                     ",
"                          #.r.r.r.r.@.                y v n n n v n n n y                                                       ",
"                          9.r.r.r.r.9.                , n n v v n v v n ,                                                       ",
"                          9.r.r.r.r.9.                w n n n n v v v v w                                                       ",
"                          #.r.r.r.r.@.                t v n v v v v v v t                                                       ",
"                          X $.9.9.$.X               # c v v x g g x v n c @                                                     ",
"                                                  - [ x b j ' [ [ ' j b x [ -                                                   ",
"                                              . 7 [ [ e  .[ [ [ [ [ [  .e [ [ q .                                               ",
"                                            & ' [ [ [ [ [ [ [ [ [ [ [ [ [ [ [ [ ' &                                             ",
"                                        @ W [ [ [ [ [ [ [ [ [ [ [ [ [ [ [ [ [ [ [ [ W @               +.q.+.                    ",
"                                    o W [ [ [ [ [ [ [ [ [ [ [ [ [ [ [ [ [ [ [ [ [ [ [ [ W o           e.r.q.                    ",
"                                      ' [ [ [ [ [ [ [ [ [ [ [ [ [ [ [ [ [ [ [ [ [ [ [ [ '             +.w.+.                    ",
"                                      @ ' [ [ [ [ [ [ [ [ [ [ [ [ [ [ [ [ [ [ [ [ [ [ ' @                                       ",
"                                        o 9 ' [ [ / Q T [ [ [ [ [ [ [ [ T ! / [ [ ' 7 o                                         ",
"                                              1 K K K T [ [ [ [ [ [ [ [ K K K K 1                                               ",
"                                            & K K K K K / [ [ [ [ [ [ / K K K K K =                                             ",
"                                          $ Y K K K K K K / } s s { / K K K K K K T $                                           ",
"                                        % Y K K K K K K K Y z v v z Y K K K K K K K T %                                         ",
"                                      > Y K K _ %.T K K K 0 v v v v 0 K K K T %._ K K K >                                       ",
"                                  X 7 K K K K ,.6.o.K K K H z v v z H K K K O.7.,.K K K K 9 o                                   ",
"                                : T K K K K K X.=.T K K K K 9 r r 9 K K K K T =...K K K K K T ;                                 ",
"                            = R K K K K K K K K K K K K K K K K K K K K K K K K K K K K K K K K R =                             ",
"        2 3.3.2             = K K K K K K K K K K K K K K K K K K K K K K K K K K K K K K K K K K *                             ",
"        3.r.r.3.              1 K K K K K K K K K ! / K K K K K K K K K K / ! K K K K K K K K K 1                               ",
"        3.r.r.3.                = R K K K K T ! ] [ [ K K K K K K K K K Y [ [ ] ! T K K K K R =                   +.q.+.        ",
"        2 3.3.2                       ' [ [ [ [ [ [ [ ! K K K K K K K K ! [ [ [ [ [ [ [ ' .                       e.r.q.        ",
"                                    - [ [ [ [ [ [ [ [ [ K K K K K K K K ] [ [ [ [ [ [ [ [ 1                       +.w.+.        ",
"                                  # [ [ [ [ [ [ [ [ [ [ / K K K K K K / [ [ [ [ [ [ [ [ [ [ @                                   ",
"                                = [ [ [ [ [ [ [ [ [ [ [ [ T K K K K T [ [ [ [ [ [ [ [ [ [ [ [ %                                 ",
"                            o E [ [ [ [ [ [ [ [ [ [ [ [ [ [ Q K K T [ [ [ [ [ [ [ [ [ [ [ [ [ [ 7 X                             ",
"                        o 7 [ [ [ [ [ [ [ [ [ [ [ [ [ [ [ [ [ / ] [ [ [ [ [ [ [ [ [ [ [ [ [ [ [ [ [ 4 X                         ",
"                      9 [ [ [ [ [ [ [ [ [ [ ( ) [ [ [ [ [ [ [ [ [ [ [ [ [ [ [ [ ) ( [ [ [ [ [ [ [ [ [ [ 7                       ",
"                      ~ [ [ [ [ [ [ [ [ [ L m S Z [ [ [ [ [ [ [ [ [ [ [ [ [ ] Z S S P [ [ [ [ [ [ [ [ [ ~                       ",
"                      # [ [ [ [ [ [ [ [ [ N S S S I [ [ [ [ [ [ [ [ [ [ [ [ I S S S N [ [ [ [ [ [ [ [ [ $                       ",
"                        > [ [ [ [ [ [ [ [ M S S S U [ [ [ [ [ [ [ [ [ [ [ [ U S S S M [ [ [ [ [ [ [ [ >                         ",
"        2 3.3.2           % ' [ [ [ [ / ! D N S A [ [ [ [ [ [ [ [ [ [ [ [ [ [ A S N F Q ] [ [ [ [ ' %                           ",
"        3.r.r.3.          O Y K T K K K K K H ^ [ [ [ [ [ [ [ / / [ [ [ [ [ [ [ T K K K K K K T K Y O                           ",
"        3.r.r.3.        . R K K K K K K K K K T [ [ [ [ [ [ ] K Y ] [ [ [ [ [ [ T K K K K K K K K K R                           ",
"        2 3.3.2         7 K K ( =._ K K K K K K / [ [ [ [ [ T K K T ] [ [ [ [ / K K K K K K _ =.( K K 7                         ",
"                      6 K K K *.7.=.K K K K K K T [ [ [ [ T K K K K T [ [ [ [ T K K K K K K =.7.&.K K K 3                       ",
"                    6 K K K K Q &.^ K K K K K K K ! [ ] T K K K K K K T ] [ ! K K K K K K K ( &.Q K K K K 6                     ",
"                . 9 K K K K K K K K K K K K K K K K T K K K K K K K K K K Q K K K K K K K K K K K K K K K K 7 .                 ",
"              + Y K K K K K K K K K K K K K K K K K K K K K K J J K K K K K K K K K K K K K K K K K K K K K K R +               ",
"            1 T K K K K K K K K 9 K K K K K Y T K K K K K K C S S B K K K K K K Q K K K K K K 9 K K K K K K K K Y >             ",
"        @ R K K K K K K K K 9 k v l 9 K K K :.1.( K K K K G S S S m G K K K K ( 1.:.K K K 9 z v k 9 K K K K K K K K R @         ",
"        1 K K K K K K K K K t v v v u K K K ;.1.^ K K K K G m S m m G K K K K ^ 1.;.K K K u v v v t K K K K K K K K K 1         ",
"        . T K K K K K K K K r n v v p K K K K T K K K K K K V m m V K K K K K K K K K K K i v v v r K K K K K K K K T .         ",
"          * Y K K K K K K K 0 z v x 8 K K K K K K K K K K K K G H K K K K K K K K K K K K 8 x v z 0 K K K K K K K Y *           ",
"            % Y K K K K Y 7 O o 5 7 K K K K K K K K K K K K K K K K K K K K K K K K K K K K Y 5 o O 7 Y K K K K R %             ",
"                $ > > & .       X Y K K K K K K K K R K K K K K K K K K K R K K K K K K K K Y X       . & > > $                 ",
"                                  R K K K K K K K 6 + K K K K K K K K K K @ 6 K K K K K K K R                                   ",
"                                  1 K K K K K K 1     R K K K K K K K K R     6 K K K K K K 1                                   ",
"                                  o Y K K K R %       @ Y K K K K K K Y +       % R K K K Y X                                   ",
"                                    1 R 6 $             > K K K K K K :             $ 6 R 1                                     ",
"                                                          : Y K K Y ;                                                           ",
"                                                            @ R R @                                                             "
};
